<mxfile host="app.diagrams.net" modified="2022-07-07T15:29:11.933Z" agent="5.0 (Macintosh; Intel Mac OS X 10_15_7) AppleWebKit/537.36 (KHTML, like Gecko) Chrome/103.0.5060.53 Safari/537.36" etag="n3qQ2mMk4cOlX9fXeMwQ" version="20.0.4" type="github">
  <diagram id="C5RBs43oDa-KdzZeNtuy" name="Page-1">
    <mxGraphModel dx="946" dy="1762" grid="1" gridSize="10" guides="1" tooltips="1" connect="1" arrows="1" fold="1" page="1" pageScale="1" pageWidth="827" pageHeight="1169" math="0" shadow="0">
      <root>
        <mxCell id="WIyWlLk6GJQsqaUBKTNV-0" />
        <mxCell id="WIyWlLk6GJQsqaUBKTNV-1" parent="WIyWlLk6GJQsqaUBKTNV-0" />
        <mxCell id="KQk1n74PzgF_zKmSvIXC-3" value="" style="edgeStyle=orthogonalEdgeStyle;rounded=0;orthogonalLoop=1;jettySize=auto;html=1;fontSize=24;" edge="1" parent="WIyWlLk6GJQsqaUBKTNV-1" source="WIyWlLk6GJQsqaUBKTNV-3" target="KQk1n74PzgF_zKmSvIXC-2">
          <mxGeometry relative="1" as="geometry" />
        </mxCell>
        <mxCell id="WIyWlLk6GJQsqaUBKTNV-3" value="Contributor receives 100 TelediskoTokens (TT)" style="rounded=1;whiteSpace=wrap;html=1;fontSize=12;glass=0;strokeWidth=1;shadow=0;fillColor=#d5e8d4;strokeColor=#82b366;" parent="WIyWlLk6GJQsqaUBKTNV-1" vertex="1">
          <mxGeometry x="339" y="-230" width="150" height="60" as="geometry" />
        </mxCell>
        <mxCell id="KQk1n74PzgF_zKmSvIXC-0" value="&lt;font style=&quot;font-size: 24px;&quot;&gt;Tokenomics&lt;/font&gt;" style="text;html=1;strokeColor=none;fillColor=none;align=center;verticalAlign=middle;whiteSpace=wrap;rounded=0;" vertex="1" parent="WIyWlLk6GJQsqaUBKTNV-1">
          <mxGeometry x="370" y="-290" width="60" height="30" as="geometry" />
        </mxCell>
        <mxCell id="KQk1n74PzgF_zKmSvIXC-41" value="" style="edgeStyle=orthogonalEdgeStyle;rounded=0;orthogonalLoop=1;jettySize=auto;html=1;fontSize=10;" edge="1" parent="WIyWlLk6GJQsqaUBKTNV-1" source="KQk1n74PzgF_zKmSvIXC-2" target="KQk1n74PzgF_zKmSvIXC-40">
          <mxGeometry relative="1" as="geometry" />
        </mxCell>
        <mxCell id="KQk1n74PzgF_zKmSvIXC-2" value="Contributor wants to transfer 42 tokens to a non-contributor wallet" style="whiteSpace=wrap;html=1;rounded=1;glass=0;strokeWidth=1;shadow=0;" vertex="1" parent="WIyWlLk6GJQsqaUBKTNV-1">
          <mxGeometry x="354" y="-110" width="120" height="60" as="geometry" />
        </mxCell>
        <mxCell id="KQk1n74PzgF_zKmSvIXC-15" value="" style="edgeStyle=orthogonalEdgeStyle;rounded=0;orthogonalLoop=1;jettySize=auto;html=1;fontSize=10;" edge="1" parent="WIyWlLk6GJQsqaUBKTNV-1" source="KQk1n74PzgF_zKmSvIXC-6" target="KQk1n74PzgF_zKmSvIXC-14">
          <mxGeometry relative="1" as="geometry" />
        </mxCell>
        <mxCell id="KQk1n74PzgF_zKmSvIXC-35" value="Yes" style="edgeLabel;html=1;align=center;verticalAlign=middle;resizable=0;points=[];fontSize=10;" vertex="1" connectable="0" parent="KQk1n74PzgF_zKmSvIXC-15">
          <mxGeometry x="-0.2836" y="2" relative="1" as="geometry">
            <mxPoint as="offset" />
          </mxGeometry>
        </mxCell>
        <mxCell id="KQk1n74PzgF_zKmSvIXC-6" value="Have the&lt;br&gt;&amp;nbsp;tokens been offered for at least&lt;br&gt;&amp;nbsp;7 days?" style="rhombus;whiteSpace=wrap;html=1;rounded=1;glass=0;strokeWidth=1;shadow=0;fillColor=#fff2cc;strokeColor=#d6b656;align=center;" vertex="1" parent="WIyWlLk6GJQsqaUBKTNV-1">
          <mxGeometry x="354" y="415" width="122" height="110" as="geometry" />
        </mxCell>
        <mxCell id="KQk1n74PzgF_zKmSvIXC-12" value="" style="edgeStyle=orthogonalEdgeStyle;rounded=0;orthogonalLoop=1;jettySize=auto;html=1;fontSize=10;" edge="1" parent="WIyWlLk6GJQsqaUBKTNV-1" source="KQk1n74PzgF_zKmSvIXC-8" target="KQk1n74PzgF_zKmSvIXC-11">
          <mxGeometry relative="1" as="geometry" />
        </mxCell>
        <mxCell id="KQk1n74PzgF_zKmSvIXC-8" value="Contributor creates an offer for 42 TT" style="whiteSpace=wrap;html=1;rounded=1;glass=0;strokeWidth=1;shadow=0;" vertex="1" parent="WIyWlLk6GJQsqaUBKTNV-1">
          <mxGeometry x="354" y="190" width="120" height="60" as="geometry" />
        </mxCell>
        <mxCell id="KQk1n74PzgF_zKmSvIXC-17" value="" style="edgeStyle=orthogonalEdgeStyle;rounded=0;orthogonalLoop=1;jettySize=auto;html=1;fontSize=10;" edge="1" parent="WIyWlLk6GJQsqaUBKTNV-1" source="KQk1n74PzgF_zKmSvIXC-11" target="KQk1n74PzgF_zKmSvIXC-16">
          <mxGeometry relative="1" as="geometry" />
        </mxCell>
        <mxCell id="KQk1n74PzgF_zKmSvIXC-11" value="Contributor signs the offer on the blockchain" style="whiteSpace=wrap;html=1;rounded=1;glass=0;strokeWidth=1;shadow=0;" vertex="1" parent="WIyWlLk6GJQsqaUBKTNV-1">
          <mxGeometry x="354" y="300" width="120" height="60" as="geometry" />
        </mxCell>
        <mxCell id="KQk1n74PzgF_zKmSvIXC-37" value="" style="edgeStyle=orthogonalEdgeStyle;rounded=0;orthogonalLoop=1;jettySize=auto;html=1;fontSize=10;" edge="1" parent="WIyWlLk6GJQsqaUBKTNV-1" source="KQk1n74PzgF_zKmSvIXC-14" target="KQk1n74PzgF_zKmSvIXC-36">
          <mxGeometry relative="1" as="geometry" />
        </mxCell>
        <mxCell id="KQk1n74PzgF_zKmSvIXC-14" value="Contributor transfers the tokens to a non-contributor wallet" style="whiteSpace=wrap;html=1;rounded=1;glass=0;strokeWidth=1;shadow=0;" vertex="1" parent="WIyWlLk6GJQsqaUBKTNV-1">
          <mxGeometry x="100" y="355" width="120" height="60" as="geometry" />
        </mxCell>
        <mxCell id="KQk1n74PzgF_zKmSvIXC-19" value="" style="edgeStyle=orthogonalEdgeStyle;rounded=0;orthogonalLoop=1;jettySize=auto;html=1;fontSize=10;" edge="1" parent="WIyWlLk6GJQsqaUBKTNV-1" source="KQk1n74PzgF_zKmSvIXC-16" target="KQk1n74PzgF_zKmSvIXC-18">
          <mxGeometry relative="1" as="geometry" />
        </mxCell>
        <mxCell id="KQk1n74PzgF_zKmSvIXC-23" value="Yes" style="edgeLabel;html=1;align=center;verticalAlign=middle;resizable=0;points=[];fontSize=10;" vertex="1" connectable="0" parent="KQk1n74PzgF_zKmSvIXC-19">
          <mxGeometry x="-0.3583" y="-2" relative="1" as="geometry">
            <mxPoint as="offset" />
          </mxGeometry>
        </mxCell>
        <mxCell id="KQk1n74PzgF_zKmSvIXC-32" style="edgeStyle=orthogonalEdgeStyle;rounded=0;orthogonalLoop=1;jettySize=auto;html=1;entryX=1;entryY=0.5;entryDx=0;entryDy=0;fontSize=10;" edge="1" parent="WIyWlLk6GJQsqaUBKTNV-1" source="KQk1n74PzgF_zKmSvIXC-16" target="KQk1n74PzgF_zKmSvIXC-6">
          <mxGeometry relative="1" as="geometry">
            <Array as="points" />
          </mxGeometry>
        </mxCell>
        <mxCell id="KQk1n74PzgF_zKmSvIXC-33" value="No" style="edgeLabel;html=1;align=center;verticalAlign=middle;resizable=0;points=[];fontSize=10;" vertex="1" connectable="0" parent="KQk1n74PzgF_zKmSvIXC-32">
          <mxGeometry x="-0.7167" y="-2" relative="1" as="geometry">
            <mxPoint as="offset" />
          </mxGeometry>
        </mxCell>
        <mxCell id="KQk1n74PzgF_zKmSvIXC-16" value="Does any other &lt;br&gt;contributor &lt;br&gt;want to buy N &lt;br&gt;offered tokens?" style="rhombus;whiteSpace=wrap;html=1;rounded=1;glass=0;strokeWidth=1;shadow=0;fillColor=#fff2cc;strokeColor=#d6b656;" vertex="1" parent="WIyWlLk6GJQsqaUBKTNV-1">
          <mxGeometry x="535" y="400" width="150" height="140" as="geometry" />
        </mxCell>
        <mxCell id="KQk1n74PzgF_zKmSvIXC-26" value="" style="edgeStyle=orthogonalEdgeStyle;rounded=0;orthogonalLoop=1;jettySize=auto;html=1;fontSize=10;" edge="1" parent="WIyWlLk6GJQsqaUBKTNV-1" source="KQk1n74PzgF_zKmSvIXC-18" target="KQk1n74PzgF_zKmSvIXC-25">
          <mxGeometry relative="1" as="geometry" />
        </mxCell>
        <mxCell id="KQk1n74PzgF_zKmSvIXC-18" value="An operator signs the transaction on the blockchain" style="whiteSpace=wrap;html=1;rounded=1;glass=0;strokeWidth=1;shadow=0;" vertex="1" parent="WIyWlLk6GJQsqaUBKTNV-1">
          <mxGeometry x="550" y="650" width="120" height="60" as="geometry" />
        </mxCell>
        <mxCell id="KQk1n74PzgF_zKmSvIXC-29" value="" style="edgeStyle=orthogonalEdgeStyle;rounded=0;orthogonalLoop=1;jettySize=auto;html=1;fontSize=10;" edge="1" parent="WIyWlLk6GJQsqaUBKTNV-1" source="KQk1n74PzgF_zKmSvIXC-25" target="KQk1n74PzgF_zKmSvIXC-28">
          <mxGeometry relative="1" as="geometry" />
        </mxCell>
        <mxCell id="KQk1n74PzgF_zKmSvIXC-25" value="N tokens are transffered to the other contributor" style="whiteSpace=wrap;html=1;rounded=1;glass=0;strokeWidth=1;shadow=0;" vertex="1" parent="WIyWlLk6GJQsqaUBKTNV-1">
          <mxGeometry x="550" y="790" width="120" height="60" as="geometry" />
        </mxCell>
        <mxCell id="KQk1n74PzgF_zKmSvIXC-34" style="edgeStyle=orthogonalEdgeStyle;rounded=0;orthogonalLoop=1;jettySize=auto;html=1;entryX=0;entryY=1;entryDx=0;entryDy=0;fontSize=10;" edge="1" parent="WIyWlLk6GJQsqaUBKTNV-1" source="KQk1n74PzgF_zKmSvIXC-28" target="KQk1n74PzgF_zKmSvIXC-6">
          <mxGeometry relative="1" as="geometry" />
        </mxCell>
        <mxCell id="KQk1n74PzgF_zKmSvIXC-28" value="Contributor has the old amount - N tokens left in the offer" style="whiteSpace=wrap;html=1;rounded=1;glass=0;strokeWidth=1;shadow=0;" vertex="1" parent="WIyWlLk6GJQsqaUBKTNV-1">
          <mxGeometry x="324" y="790" width="120" height="60" as="geometry" />
        </mxCell>
        <mxCell id="KQk1n74PzgF_zKmSvIXC-36" value="End" style="whiteSpace=wrap;html=1;rounded=1;glass=0;strokeWidth=1;shadow=0;fillColor=#f8cecc;strokeColor=#b85450;" vertex="1" parent="WIyWlLk6GJQsqaUBKTNV-1">
          <mxGeometry x="100" y="495" width="120" height="60" as="geometry" />
        </mxCell>
        <mxCell id="KQk1n74PzgF_zKmSvIXC-39" value="Transfer is rejected" style="whiteSpace=wrap;html=1;rounded=1;glass=0;strokeWidth=1;shadow=0;" vertex="1" parent="WIyWlLk6GJQsqaUBKTNV-1">
          <mxGeometry x="180" y="700" width="120" height="60" as="geometry" />
        </mxCell>
        <mxCell id="KQk1n74PzgF_zKmSvIXC-42" style="edgeStyle=orthogonalEdgeStyle;rounded=0;orthogonalLoop=1;jettySize=auto;html=1;entryX=0.5;entryY=0;entryDx=0;entryDy=0;fontSize=10;" edge="1" parent="WIyWlLk6GJQsqaUBKTNV-1" source="KQk1n74PzgF_zKmSvIXC-40" target="KQk1n74PzgF_zKmSvIXC-8">
          <mxGeometry relative="1" as="geometry" />
        </mxCell>
        <mxCell id="KQk1n74PzgF_zKmSvIXC-43" value="No" style="edgeLabel;html=1;align=center;verticalAlign=middle;resizable=0;points=[];fontSize=10;" vertex="1" connectable="0" parent="KQk1n74PzgF_zKmSvIXC-42">
          <mxGeometry x="-0.4111" y="-1" relative="1" as="geometry">
            <mxPoint as="offset" />
          </mxGeometry>
        </mxCell>
        <mxCell id="KQk1n74PzgF_zKmSvIXC-44" style="edgeStyle=orthogonalEdgeStyle;rounded=0;orthogonalLoop=1;jettySize=auto;html=1;fontSize=10;" edge="1" parent="WIyWlLk6GJQsqaUBKTNV-1" source="KQk1n74PzgF_zKmSvIXC-40" target="KQk1n74PzgF_zKmSvIXC-14">
          <mxGeometry relative="1" as="geometry" />
        </mxCell>
        <mxCell id="KQk1n74PzgF_zKmSvIXC-45" value="Yes" style="edgeLabel;html=1;align=center;verticalAlign=middle;resizable=0;points=[];fontSize=10;" vertex="1" connectable="0" parent="KQk1n74PzgF_zKmSvIXC-44">
          <mxGeometry x="0.0825" y="-2" relative="1" as="geometry">
            <mxPoint y="1" as="offset" />
          </mxGeometry>
        </mxCell>
        <mxCell id="KQk1n74PzgF_zKmSvIXC-40" value="Are 42 tokens unlocked?" style="rhombus;whiteSpace=wrap;html=1;rounded=1;glass=0;strokeWidth=1;shadow=0;fillColor=#fff2cc;strokeColor=#d6b656;" vertex="1" parent="WIyWlLk6GJQsqaUBKTNV-1">
          <mxGeometry x="359" y="-10" width="110" height="110" as="geometry" />
        </mxCell>
      </root>
    </mxGraphModel>
  </diagram>
</mxfile>
